<!DOCTYPE svg PUBLIC "-//W3C//DTD SVG 1.1//EN" "http://www.w3.org/Graphics/SVG/1.1/DTD/svg11.dtd">
<!-- Uploaded to: SVG Repo, www.svgrepo.com, Transformed by: SVG Repo Mixer Tools -->
<svg fill="#f28d01" width="800px" height="800px" viewBox="0 0 32 32" id="Outlined" xmlns="http://www.w3.org/2000/svg" stroke="#f28d01">
<g id="SVGRepo_bgCarrier" stroke-width="0"/>
<g id="SVGRepo_tracerCarrier" stroke-linecap="round" stroke-linejoin="round"/>
<g id="SVGRepo_iconCarrier"> <title/> <g id="Fill"> <path d="M28.11,13.32,2.13,2.1,7.44,14.85a3.05,3.05,0,0,1,0,2.3L2.13,29.88l26-11a3,3,0,0,0,0-5.51ZM27.31,17,5.87,26.12l3.41-8.2A4.42,4.42,0,0,0,9.56,17H20V15H9.56a4.42,4.42,0,0,0-.28-.92L5.87,5.9l21.45,9.25a1,1,0,0,1,.6.92A1,1,0,0,1,27.31,17Z"/> </g> </g>
</svg>